PathFileType	4	(X/Y/Z)	C:/Users/opensim2020/Desktop/walking_exp_matlab/subject03_walking13_straight_02.trc	
DataRate	CameraRate	NumFrames	NumMarkers	Units	OrigDataRate	OrigDataStartFrame	OrigNumFrames	
100.00	100.00	6	46	mm	100.00	1079	193	
Frame#	Time	LFHD			RFHD			LBHD			RBHD			C7			T10			CLAV			STRN			RBAK			LSHO			LUPA			LELB			LFRM			LWRA			LWRB			LFIN			RSHO			RUPA			RELB			RFRM			RWRA			RWRB			RFIN			LASI			RASI			LPSI			RPSI			LTHI			LKNE			LTIB			LANK			LHEE			LTOE			RTHI			RKNE			RTIB			RANK			RHEE			RTOE			*39			*40			*41			*42			*43			*44			*45			
		X1	Y1	Z1	X2	Y2	Z2	X3	Y3	Z3	X4	Y4	Z4	X5	Y5	Z5	X6	Y6	Z6	X7	Y7	Z7	X8	Y8	Z8	X9	Y9	Z9	X10	Y10	Z10	X11	Y11	Z11	X12	Y12	Z12	X13	Y13	Z13	X14	Y14	Z14	X15	Y15	Z15	X16	Y16	Z16	X17	Y17	Z17	X18	Y18	Z18	X19	Y19	Z19	X20	Y20	Z20	X21	Y21	Z21	X22	Y22	Z22	X23	Y23	Z23	X24	Y24	Z24	X25	Y25	Z25	X26	Y26	Z26	X27	Y27	Z27	X28	Y28	Z28	X29	Y29	Z29	X30	Y30	Z30	X31	Y31	Z31	X32	Y32	Z32	X33	Y33	Z33	X34	Y34	Z34	X35	Y35	Z35	X36	Y36	Z36	X37	Y37	Z37	X38	Y38	Z38	X39	Y39	Z39	X40	Y40	Z40	X41	Y41	Z41	X42	Y42	Z42	X43	Y43	Z43	X44	Y44	Z44	X45	Y45	Z45	X46	Y46	Z46	

1	0.000	1416.50000	1347.32947	1629.59839	1284.43494	1362.81726	1626.03955	1429.51807	1474.60681	1585.47571	1298.79980	1484.90955	1581.60266	1372.57764	1509.58472	1420.68445	1380.47510	1542.99658	1108.40466	1376.22705	1387.84985	1345.23804	1389.11975	1342.60632	1180.63037	1283.19287	1560.42554	1241.06543	1528.45435	1437.71191	1389.24292	1620.69092	1433.70227	1204.83740	1646.58167	1403.32410	1092.46667	1642.45679	1306.82544	1014.21088	1604.69080	1213.48816	949.75439	1651.70752	1232.42700	929.01532	1643.14331	1157.93945	897.55981	1215.57532	1433.15735	1364.22888	1148.14758	1424.74890	1140.07666	1137.83301	1405.27441	1028.39221	1138.73364	1384.39282	892.99585	1177.96936	1353.74475	798.94122	1131.98816	1382.45935	792.12701	1148.50427	1364.04053	719.83673	1509.27258	1385.68506	945.55811	1271.55249	1368.82288	942.70624	1448.40808	1544.77917	963.52844	1299.84155	1532.98022	972.99402	1572.99768	1404.89343	645.33771	1564.24231	1369.30652	468.30118	1554.36169	1522.34436	345.04395	1508.99695	1670.95740	203.67274	1462.20251	1718.48401	205.20120	1508.71216	1600.15479	71.80669	1246.48279	1407.68213	644.30304	1302.58105	1384.90234	472.21710	1309.50696	1428.81873	282.10614	1372.49829	1459.28223	72.25320	1424.16309	1504.31726	41.85522	1391.01270	1318.56409	37.65804				1372.04834	1435.45764	1685.40234															 
2	0.010	1417.72681	1335.26917	1630.38550	1285.72266	1350.82080	1626.88770	1430.94360	1462.59497	1586.43481	1300.18799	1473.03687	1582.53015	1373.86353	1497.73975	1421.65137	1380.94153	1531.26929	1109.42639	1377.53601	1376.11011	1346.07642	1390.01978	1331.01477	1181.39172	1284.00366	1548.45593	1242.18237	1529.91321	1426.52393	1390.03345	1620.91821	1425.04053	1204.62463	1645.70313	1395.97693	1091.27417	1641.57935	1301.41370	1010.92755	1603.62878	1209.54993	944.22375	1650.73132	1228.94373	923.96619	1641.29285	1155.27661	889.95361	1216.86316	1421.22156	1365.39099	1149.39087	1410.76526	1141.63611	1139.41760	1389.88428	1030.26672	1140.42053	1367.08179	895.25867	1179.63586	1335.12830	801.98303	1133.92676	1363.47241	794.39325	1150.53308	1343.34045	722.64917	1509.44714	1373.41638	947.64093	1271.94702	1357.92615	943.19720	1449.71216	1532.91077	965.19098	1300.98157	1521.53845	973.89716	1573.13171	1385.77869	647.63806	1563.19580	1345.88220	471.40692	1555.80566	1495.49402	344.02762	1512.57104	1640.29993	197.60603	1467.20532	1689.50781	196.99562	1510.65430	1562.96997	70.10412	1247.74219	1400.48840	644.24579	1303.19580	1381.60071	471.72748	1310.03857	1427.35510	282.25125	1372.80481	1459.06201	72.46436	1424.27356	1504.37451	41.97211	1390.94983	1318.62842	37.65587				1373.38074	1423.41187	1686.28821															 
3	0.020	1418.89893	1323.22253	1630.93066	1286.89844	1338.86340	1627.44507	1432.15503	1450.47571	1587.07300	1301.48230	1461.08557	1583.23840	1375.16736	1485.96008	1422.45068	1381.53564	1519.62109	1110.26978	1378.79724	1364.38147	1346.76733	1390.92651	1319.43896	1182.10156	1284.87585	1536.62012	1243.33325	1531.24561	1415.20520	1390.61072	1621.08838	1416.21655	1204.22888	1645.24390	1388.96069	1090.35413	1640.73035	1296.06982	1007.24805	1602.66162	1205.96240	938.15436	1649.91931	1225.79504	918.51770	1639.63391	1153.21057	881.70679	1218.17297	1409.47400	1366.59180	1150.55261	1396.95276	1143.04004	1140.83972	1374.75549	1032.01355	1142.09473	1349.56848	897.54749	1181.64417	1316.50464	804.89941	1135.84558	1344.48328	796.73303	1152.31250	1322.85339	725.52991	1509.61572	1361.04993	949.40564	1272.35535	1347.05994	943.68011	1451.08972	1520.93530	966.68994	1302.21814	1510.07874	974.68042	1573.16724	1367.23279	650.01636	1562.13501	1323.19055	475.01151	1557.12622	1468.22693	342.15036	1516.31104	1609.11511	190.94479	1472.14282	1659.34192	187.63205	1512.45044	1524.87122	67.90669	1248.78857	1394.20288	644.25378	1303.80884	1378.16528	471.17728	1310.53650	1425.60583	282.36551	1372.90552	1459.04761	72.51746	1424.48621	1504.36780	42.04912	1390.89502	1318.66138	37.66100				1374.86487	1411.30090	1686.96692															 
4	0.030	1420.13379	1311.13220	1631.28198	1288.18494	1326.94604	1627.80823	1433.34900	1438.37256	1587.49243	1302.79285	1449.14941	1583.74939	1376.39417	1474.12769	1422.99316	1382.19604	1508.04736	1110.89758	1380.02588	1352.64368	1347.22327	1391.79016	1307.96521	1182.53967	1285.58557	1524.80725	1244.35437	1532.54919	1403.71484	1390.87817	1621.12708	1407.25159	1203.60852	1644.29761	1381.73474	1088.85986	1639.96826	1290.96289	1003.29669	1601.81323	1202.62891	931.62891	1649.13721	1223.01807	912.59796	1638.21326	1151.73389	872.78931	1219.43201	1397.59656	1367.44409	1151.60498	1383.43115	1144.35596	1142.12939	1359.88367	1033.65173	1143.88367	1332.41797	899.54077	1184.18689	1298.30554	807.46362	1137.84497	1325.40161	798.94568	1154.58887	1301.46045	728.26581	1509.74695	1348.65857	950.91266	1272.67627	1336.18579	943.65857	1452.49719	1508.85010	967.90765	1303.42749	1498.68298	975.22351	1573.17847	1349.17456	652.23096	1560.74011	1300.91113	478.33243	1557.97363	1440.49634	339.44092	1519.65771	1576.73108	183.11282	1476.35913	1627.78015	177.04283	1514.18567	1485.95264	65.30508	1249.88403	1387.70581	644.04828	1304.37927	1374.64246	470.56921	1310.98767	1423.83777	282.50159	1373.14880	1459.02710	72.99470	1424.62183	1504.40149	42.23853	1390.84143	1318.66895	37.64688				1376.16992	1399.22546	1687.44250															 
5	0.040	1421.41187	1299.07068	1631.36890	1289.44690	1314.95032	1628.00635	1435.02356	1426.50415	1587.81885	1304.22827	1437.25720	1584.07190	1377.71777	1462.29858	1423.33655	1382.91504	1496.44153	1111.30554	1381.28418	1340.90015	1347.49744	1392.52991	1296.35535	1182.65796	1286.17029	1512.95398	1245.08667	1533.81628	1392.11890	1390.90063	1621.07275	1398.05505	1202.71448	1643.33044	1374.42883	1087.06982	1639.13245	1285.87695	998.94720	1601.11646	1199.50830	924.57391	1648.47180	1220.68774	906.26074	1636.93286	1150.84448	863.28607	1220.78662	1385.84241	1368.20508	1152.48157	1370.12854	1145.38428	1143.17639	1345.31494	1035.05298	1145.26831	1315.25098	901.56140	1185.93286	1279.32520	810.56305	1139.87573	1306.45544	801.14264	1156.62476	1280.77808	731.05298	1509.90991	1336.30103	952.06775	1272.33203	1324.56995	943.61023	1453.87000	1496.75525	968.84491	1304.73596	1487.50391	975.66394	1573.20044	1331.58508	654.25586	1559.08704	1279.17004	481.38031	1558.95850	1413.10559	336.56845	1522.56750	1543.49915	174.49692	1480.12549	1594.99414	165.45631	1515.75806	1446.05005	62.40047	1251.14111	1380.58691	643.79962	1304.75488	1371.14050	470.01334	1311.38000	1422.06641	282.63290	1373.45264	1458.83423	72.96703	1424.78320	1504.55798	42.54404	1390.67432	1318.66443	37.71013				1377.80737	1387.06958	1687.76917															 
6	0.050	1422.65259	1286.99670	1631.15381	1290.73499	1303.05408	1627.92493	1436.29028	1414.38428	1587.69141	1305.65967	1425.38135	1584.09863	1378.84412	1450.39893	1423.33923	1383.70422	1484.83411	1111.41272	1382.39868	1329.15405	1347.44287	1393.38135	1284.82031	1182.70142	1286.70227	1501.04077	1245.56995	1535.01685	1380.38135	1390.55188	1621.07947	1388.77014	1201.60645	1642.54736	1367.13354	1085.19751	1638.37488	1280.95508	994.28467	1600.60034	1196.73682	917.16876	1647.80774	1218.70251	899.41241	1635.92432	1150.62659	853.25293	1222.18604	1374.31726	1368.79797	1153.27722	1356.93799	1146.20471	1144.02661	1330.97168	1036.21790	1146.92603	1298.55078	903.38715	1188.00452	1260.68274	813.35718	1141.90369	1287.49634	803.17688	1158.98206	1260.07227	733.85876	1510.05432	1323.86597	952.76501	1273.38586	1314.75195	943.29138	1455.35522	1484.61450	969.42841	1306.00562	1476.22534	975.70715	1573.18030	1314.32861	656.08002	1557.76111	1258.46216	484.55316	1559.65967	1385.83105	333.29446	1524.85547	1508.91711	164.75116	1483.35815	1561.01709	153.13625	1517.14294	1405.42444	59.23232	1252.24109	1373.69971	643.51929	1305.02124	1367.57690	469.30585	1311.66943	1420.37512	282.81390	1373.69702	1458.76563	73.15532	1424.98657	1504.48242	42.81263	1390.58105	1318.62891	37.68817				1379.29443	1374.90320	1687.62769															 
